<svg width="20" height="20" viewBox="0 0 20 20" fill="none" xmlns="http://www.w3.org/2000/svg">
<path d="M16.291 9.16408C15.9118 8.31067 15.3606 7.5447 14.6719 6.91408L14.1035 6.39259C14.0842 6.37537 14.061 6.36315 14.0359 6.357C14.0107 6.35085 13.9845 6.35097 13.9594 6.35733C13.9344 6.36369 13.9112 6.37611 13.8921 6.3935C13.8729 6.41089 13.8584 6.43271 13.8496 6.45705L13.5957 7.18556C13.4375 7.64259 13.1465 8.10939 12.7344 8.56837C12.707 8.59767 12.6758 8.60548 12.6543 8.60744C12.6328 8.60939 12.5996 8.60548 12.5703 8.57814C12.543 8.5547 12.5293 8.51955 12.5312 8.48439C12.6035 7.30861 12.252 5.98244 11.4824 4.53908C10.8457 3.33986 9.96094 2.40431 8.85547 1.75197L8.04883 1.27736C7.94336 1.21486 7.80859 1.29689 7.81445 1.41994L7.85742 2.35744C7.88672 2.99806 7.8125 3.56447 7.63672 4.03517C7.42187 4.61134 7.11328 5.1465 6.71875 5.62697C6.44418 5.96088 6.13299 6.2629 5.79102 6.52736C4.96739 7.16049 4.29768 7.97176 3.83203 8.90041C3.36753 9.83715 3.12557 10.8685 3.125 11.9141C3.125 12.836 3.30664 13.7285 3.66602 14.5703C4.01302 15.3808 4.51379 16.1164 5.14062 16.7363C5.77344 17.3613 6.50781 17.8535 7.32617 18.1953C8.17383 18.5508 9.07227 18.7305 10 18.7305C10.9277 18.7305 11.8262 18.5508 12.6738 18.1973C13.4902 17.8575 14.2325 17.3619 14.8594 16.7383C15.4922 16.1133 15.9883 15.3828 16.334 14.5723C16.6928 13.7328 16.8769 12.829 16.875 11.916C16.875 10.9629 16.6797 10.0371 16.291 9.16408Z" fill="#131313"/>
</svg>
