<svg width="25" height="25" viewBox="0 0 25 25" fill="none" xmlns="http://www.w3.org/2000/svg">
<path fill-rule="evenodd" clip-rule="evenodd" d="M20.4782 11.2844C20.4782 6.64844 16.9641 3.42188 11.9126 3.42188C6.6782 3.42188 3.0907 7.04375 3.0907 12.3313C3.0907 17.7891 6.58289 21.25 12.0938 21.25C13.4407 21.25 14.7329 21.0578 15.6938 20.7266V19.3797C15.0219 19.6906 13.5782 19.8922 12.1157 19.8922C7.54382 19.8922 4.59539 16.9547 4.59539 12.3953C4.59539 7.95156 7.59695 4.76875 11.7735 4.76875C16.0469 4.76875 18.9735 7.40625 18.9735 11.2625C18.9735 13.8906 18.1079 15.5891 16.761 15.5891C15.9923 15.5891 15.5548 15.1516 15.5548 14.4016V8.13437H13.9423V9.4375H13.7704C13.3548 8.50781 12.3938 7.93125 11.2704 7.93125C9.08288 7.93125 7.55476 9.74688 7.55476 12.3422C7.55476 15.0563 9.05007 16.8828 11.2719 16.8828C12.5219 16.8828 13.4829 16.2734 13.9423 15.1844H14.1141C14.2407 16.2313 15.2126 16.9781 16.4626 16.9781C18.9188 16.9781 20.4782 14.7672 20.4782 11.2859V11.2844ZM9.26413 12.3844C9.26413 10.5141 10.1079 9.40469 11.5391 9.40469C12.9923 9.40469 13.9204 10.5578 13.9204 12.3844C13.9204 14.2109 12.9813 15.375 11.5173 15.375C10.1188 15.375 9.26413 14.2422 9.26413 12.3844Z" fill="#F8901D"/>
</svg>
