<svg width="25" height="25" viewBox="0 0 25 25" fill="none" xmlns="http://www.w3.org/2000/svg">
<path d="M12.5 12C11.75 12 11.25 12.5 11.25 13.25C11.25 13.75 11.625 14.125 12 14.25L11.625 16H13.25L12.875 14.25C13.375 14.125 13.625 13.75 13.625 13.25C13.75 12.5 13.25 12 12.5 12ZM12.625 6.625C11.75 6.625 10.875 7.25 10.875 8.125V10H14.25V8.125C14.125 7.25 13.5 6.625 12.625 6.625ZM12.5 2.5L3.75 6.25V10C3.875 15.5 7.375 20.375 12.5 22.375C17.625 20.375 21.125 15.5 21.25 10V6.25L12.5 2.5ZM17.5 16.25C17.5 17 17 17.5 16.25 17.5H8.75C8 17.5 7.5 17 7.5 16.25V11.25C7.5 10.5 8 10 8.75 10H9.125V8.125C9.25 6.375 10.75 5 12.5 5C14.25 5 15.75 6.375 15.875 8.125V10H16.25C17 10 17.5 10.5 17.5 11.25V16.25Z" fill="#131313"/>
</svg>
