<svg width="32" height="32" viewBox="0 0 32 32" fill="none" xmlns="http://www.w3.org/2000/svg">
<path d="M17.3333 4C14.1507 4 11.0984 5.26428 8.84797 7.51472C6.59753 9.76515 5.33325 12.8174 5.33325 16H1.33325L6.51992 21.1867L6.61325 21.3733L11.9999 16H7.99992C7.99992 10.84 12.1733 6.66667 17.3333 6.66667C22.4933 6.66667 26.6666 10.84 26.6666 16C26.6666 21.16 22.4933 25.3333 17.3333 25.3333C14.7599 25.3333 12.4266 24.28 10.7466 22.5867L8.85325 24.48C9.96447 25.5973 11.2859 26.4837 12.7413 27.0878C14.1968 27.6919 15.7574 28.002 17.3333 28C20.5159 28 23.5681 26.7357 25.8185 24.4853C28.069 22.2348 29.3333 19.1826 29.3333 16C29.3333 12.8174 28.069 9.76515 25.8185 7.51472C23.5681 5.26428 20.5159 4 17.3333 4ZM15.9999 10.6667V17.3333L21.7066 20.72L22.6666 19.1067L17.9999 16.3333V10.6667H15.9999Z" fill="#131313"/>
</svg>
