<svg width="32" height="32" viewBox="0 0 32 32" fill="none" xmlns="http://www.w3.org/2000/svg">
<path d="M11.4957 28.7194C11.6108 28.8442 11.6721 29.0094 11.6661 29.1791C11.6601 29.3488 11.5874 29.5093 11.4637 29.6256L10.0736 30.9255C9.94951 31.0408 9.78468 31.1021 9.61536 31.096C9.44604 31.0899 9.28607 31.0168 9.1706 30.8928L1.07524 22.1684C0.960195 22.0435 0.899091 21.8782 0.905203 21.7085C0.911315 21.5388 0.984148 21.3784 1.10788 21.2621L2.49988 19.9642C2.5613 19.907 2.63339 19.8625 2.71202 19.8332C2.79066 19.8039 2.87429 19.7904 2.95816 19.7934C3.04202 19.7964 3.12447 19.816 3.20078 19.8509C3.2771 19.8858 3.34578 19.9354 3.40292 19.9968L11.4957 28.7194ZM21.8253 12.3034C21.9404 12.4283 22.0015 12.5935 21.9953 12.7632C21.9892 12.9329 21.9164 13.0934 21.7927 13.2096L13.0439 21.3824C12.9197 21.4978 12.7549 21.5591 12.5856 21.553C12.4163 21.5469 12.2563 21.4738 12.1408 21.3498L10.0525 19.0964C9.93748 18.9715 9.87637 18.8062 9.88248 18.6365C9.8886 18.4668 9.96143 18.3064 10.0852 18.1901L18.832 10.0173C18.8934 9.96016 18.9654 9.91566 19.044 9.88636C19.1226 9.85706 19.2062 9.84354 19.29 9.84657C19.3738 9.8496 19.4562 9.86913 19.5325 9.90403C19.6087 9.93893 19.6774 9.98852 19.7344 10.05L21.8253 12.3034ZM14.4724 25.9373C14.7117 26.1952 14.697 26.6029 14.4397 26.8436L13.0477 28.1428C12.9863 28.1999 12.9142 28.2445 12.8356 28.2738C12.7569 28.3031 12.6733 28.3166 12.5894 28.3136C12.5056 28.3105 12.4231 28.291 12.3468 28.2561C12.2705 28.2212 12.2018 28.1716 12.1447 28.1101L4.0538 19.3856C3.93867 19.2608 3.87746 19.0956 3.88345 18.9259C3.88944 18.7563 3.96216 18.5958 4.0858 18.4794L5.47524 17.1808C5.59936 17.0655 5.76419 17.0042 5.93351 17.0103C6.10283 17.0164 6.2628 17.0895 6.37828 17.2135L14.4724 25.9373ZM27.9527 12.6164C28.0676 12.7413 28.1286 12.9066 28.1224 13.0763C28.1162 13.246 28.0432 13.4064 27.9194 13.5226L26.528 14.8218C26.4039 14.9372 26.239 14.9987 26.0696 14.9927C25.9002 14.9867 25.74 14.9137 25.6244 14.7898L17.5322 6.06724C17.4169 5.94251 17.3556 5.77728 17.3616 5.60754C17.3676 5.43779 17.4404 5.2773 17.5642 5.16101L18.9594 3.8586C19.0208 3.80144 19.0928 3.75694 19.1714 3.72764C19.25 3.69834 19.3336 3.68482 19.4174 3.68785C19.5012 3.69088 19.5836 3.71041 19.6598 3.74531C19.7361 3.78021 19.8047 3.8298 19.8618 3.89124L27.9527 12.6164ZM30.9248 9.83877C31.0398 9.96384 31.1008 10.1292 31.0947 10.2989C31.0886 10.4687 31.0158 10.6292 30.8922 10.7456L29.5034 12.0442C29.4421 12.1014 29.3701 12.146 29.2915 12.1753C29.2129 12.2047 29.1294 12.2182 29.0456 12.2153C28.9618 12.2123 28.8793 12.1928 28.8031 12.158C28.7268 12.1231 28.6581 12.0736 28.601 12.0122L20.5101 3.2858C20.3951 3.16081 20.334 2.99554 20.34 2.8258C20.346 2.65605 20.4186 2.4955 20.5421 2.37892L21.9322 1.0778C21.9934 1.02054 22.0654 0.975939 22.1439 0.946547C22.2224 0.917155 22.3059 0.903555 22.3897 0.906529C22.4735 0.909502 22.5559 0.928989 22.6321 0.963872C22.7083 0.998755 22.7769 1.04835 22.834 1.1098L30.9248 9.83877Z" fill="white"/>
</svg>
