<svg width="32" height="32" viewBox="0 0 32 32" fill="none" xmlns="http://www.w3.org/2000/svg">
<path d="M17.3333 2.66669C16.626 2.66669 15.9477 2.94764 15.4476 3.44774C14.9475 3.94783 14.6666 4.62611 14.6666 5.33335C14.6666 6.0406 14.9475 6.71887 15.4476 7.21897C15.9477 7.71907 16.626 8.00002 17.3333 8.00002C18.8133 8.00002 19.9999 6.81335 19.9999 5.33335C19.9999 4.62611 19.719 3.94783 19.2189 3.44774C18.7188 2.94764 18.0405 2.66669 17.3333 2.66669ZM5.33325 9.33335V12H13.3333V20L6.57325 26.76L8.45325 28.6667L17.4133 19.6934L22.6666 22.84V28H25.3333V22.0934C25.3333 21.6134 25.0933 21.1867 24.6666 20.9467L19.9999 18.1334V12H27.9999V9.33335H5.33325Z" fill="white"/>
</svg>
