<svg width="210" height="175" viewBox="0 0 210 175" fill="none" xmlns="http://www.w3.org/2000/svg">
<g clip-path="url(#clip0)">
<path opacity="0.24" d="M209.884 133.089C209.78 134.223 209.579 135.346 209.281 136.445C208.606 138.985 207.586 141.419 206.248 143.68C198.501 157.205 183.346 165.019 168.079 168.198C152.812 171.378 137.058 170.695 121.473 171.414C100.464 172.379 79.4875 175.924 58.4546 174.79C48.4843 174.235 38.5999 172.633 28.9643 170.011C-17.489 170.011 5.21932 99.0409 7.89113 72.1352C9.04423 60.5433 10.3902 48.3927 17.0034 38.8064C24.826 27.4476 38.6752 21.7884 52.2271 19.3285C65.7789 16.8686 79.7165 16.9932 93.2082 14.1676C115.221 9.5453 136.503 -2.92685 158.698 0.626287C180.486 4.11109 198.164 24.8672 198.152 46.9336C198.152 62.4243 191.125 77.8266 195.159 93.253C198.666 106.654 211.25 118.519 209.884 133.089Z" fill="#F8901D"/>
<path opacity="0.24" d="M67.2733 42.2839C62.2552 43.1561 57.2089 44.185 52.5764 46.3033C49.1091 47.8829 45.9471 50.0453 42.8253 52.2319C33.4157 58.8277 23.7932 66.3962 19.8437 77.1922C18.1863 81.7335 17.6419 86.6063 18.256 91.4016C18.8701 96.1969 20.6249 100.775 23.3732 104.752C26.1215 108.728 29.783 111.987 34.0506 114.256C38.3183 116.524 43.0674 117.735 47.8997 117.788C45.0228 115.452 42.6601 112.545 40.9601 109.251C39.2601 105.957 38.2596 102.347 38.0216 98.6477C37.7835 94.9483 38.3129 91.2396 39.5766 87.7548C40.8402 84.2699 42.8109 81.0843 45.3645 78.398C48.3859 75.2187 52.1465 72.8232 56.0879 70.8979C68.6876 64.7482 83.1073 63.3093 97.1172 63.8599C111.127 64.4106 116.483 61.0946 130.465 62.2522C127.343 54.4787 132.044 52.7142 127.604 45.6079C121.079 35.1575 114.04 36.918 102.907 37.8907C90.9821 38.9719 79.0655 40.234 67.2733 42.2839Z" fill="#F8901D"/>
<path d="M65.0034 40.5194C59.9852 41.3916 54.9389 42.4206 50.3064 44.5388C46.8431 46.1184 43.6771 48.2808 40.5593 50.4674C31.1498 57.0672 21.5272 64.6357 17.5818 75.4318C15.9245 79.9728 15.38 84.8451 15.9939 89.6402C16.6078 94.4352 18.3623 99.013 21.1101 102.99C23.8579 106.966 27.5189 110.225 31.786 112.494C36.0531 114.763 40.8018 115.974 45.6338 116.028C42.7597 113.691 40.3996 110.786 38.7016 107.493C37.0035 104.201 36.0043 100.593 35.7666 96.8961C35.5289 93.199 36.0579 89.4927 37.3203 86.0099C38.5828 82.5271 40.5514 79.343 43.1026 76.6577C46.1199 73.4783 49.8805 71.0828 53.822 69.1575C66.4256 63.0078 80.8454 61.5689 94.8553 62.1196C108.865 62.6702 117.001 64.1855 130.971 65.3351C127.849 57.5616 129.766 50.9658 125.346 43.8595C118.821 33.4091 111.786 35.1696 100.653 36.1423C88.7121 37.2074 76.7995 38.4695 65.0034 40.5194Z" fill="url(#paint0_linear)"/>
<path opacity="0.24" d="M209.297 136.446C208.622 138.985 207.601 141.42 206.263 143.681C198.517 157.206 183.362 165.02 168.095 168.199C152.827 171.379 137.074 170.695 121.489 171.415C100.464 172.379 79.4872 175.924 58.4542 174.791C48.484 174.236 38.5996 172.634 28.9639 170.012C22.5074 168.251 9.16441 165.956 5.25915 159.963C2.81636 156.229 2.41458 149.232 2.33423 143.339C3.79669 143.568 5.24308 143.914 6.52073 144.035C10.8438 144.437 15.2192 144.481 19.5543 144.613C28.7336 144.911 37.9195 145.108 47.1121 145.204C83.7031 145.593 120.265 144.387 156.797 141.587C174.33 140.236 191.83 138.523 209.297 136.446Z" fill="#F8901D"/>
<path d="M58.8439 116.438H53.3757V150.184H58.8439V116.438Z" fill="#F8901D"/>
<path d="M58.8439 116.438H53.3757V150.184H58.8439V116.438Z" fill="url(#paint1_linear)"/>
<path d="M71.7048 106.08V119.452H34.2312V106.08C34.2317 105.164 34.4126 104.257 34.7634 103.412C35.1143 102.566 35.6283 101.798 36.276 101.151C36.9237 100.504 37.6925 99.9914 38.5384 99.6419C39.3843 99.2923 40.2908 99.113 41.206 99.114H64.734C66.5814 99.114 68.3532 99.8476 69.6603 101.154C70.9673 102.46 71.7027 104.231 71.7048 106.08Z" fill="#F8901D"/>
<path d="M41.2342 100.276C42.0256 100.276 42.8093 100.432 43.5405 100.735C44.2716 101.038 44.936 101.482 45.4956 102.042C46.0553 102.601 46.4992 103.266 46.802 103.997C47.1049 104.729 47.2608 105.513 47.2608 106.305V119.376H35.2075V106.313C35.2065 105.52 35.3616 104.735 35.664 104.003C35.9664 103.271 36.4101 102.605 36.9698 102.044C37.5296 101.484 38.1943 101.039 38.926 100.735C39.6577 100.432 40.4421 100.276 41.2342 100.276Z" fill="url(#paint2_linear)"/>
<path d="M71.7088 106.08V119.448H48.6188V105.296C47.9277 101.598 45.3242 99.8978 43.1868 99.114H64.734C66.5821 99.1129 68.3549 99.8461 69.6628 101.152C70.9708 102.458 71.7067 104.231 71.7088 106.08Z" fill="url(#paint3_linear)"/>
<path d="M47.6585 117.535H23.1582C22.6279 117.535 22.198 117.964 22.198 118.493C22.198 119.023 22.6279 119.452 23.1582 119.452H47.6585C48.1888 119.452 48.6188 119.023 48.6188 118.493C48.6188 117.964 48.1888 117.535 47.6585 117.535Z" fill="#F8901D"/>
<path d="M47.6585 117.535H23.1582C22.6279 117.535 22.198 117.964 22.198 118.493C22.198 119.023 22.6279 119.452 23.1582 119.452H47.6585C48.1888 119.452 48.6188 119.023 48.6188 118.493C48.6188 117.964 48.1888 117.535 47.6585 117.535Z" fill="url(#paint4_linear)"/>
<path opacity="0.24" d="M41.6238 147.226C38.4377 147.797 35.2798 148.532 32.0616 148.834C29.9723 149.035 27.6661 149.139 26.1514 150.594C25.791 150.904 25.5519 151.331 25.4765 151.8C25.3921 152.805 26.4407 153.508 27.3809 153.878C30.125 154.963 33.1022 155.273 36.0472 155.462C40.8363 155.763 45.6416 155.771 50.4468 155.775H64.75C68.9767 155.775 73.6614 155.602 76.6868 152.656C77.3256 152.104 77.7589 151.352 77.9162 150.522C78.0849 149.179 77.0644 147.913 75.831 147.351C73.6976 146.378 70.5034 146.579 68.1973 146.322C65.1572 146.008 62.1157 145.829 59.0729 145.783C53.2241 145.714 47.3819 146.197 41.6238 147.226Z" fill="#F8901D"/>
<path d="M61.6766 108.109C61.6244 108.282 61.4717 108.801 61.4275 108.99L60.9173 110.883C60.8923 110.966 60.8802 111.053 60.8811 111.14C60.8784 111.17 60.8824 111.2 60.8929 111.228C60.9034 111.256 60.9202 111.281 60.9418 111.301C60.9635 111.322 60.9896 111.337 61.018 111.346C61.0465 111.355 61.0766 111.357 61.1061 111.353C61.3028 111.337 61.4896 111.259 61.6405 111.132C61.8652 110.93 62.0434 110.682 62.1627 110.404C62.282 110.127 62.3396 109.826 62.3315 109.524C62.341 109.158 62.2557 108.795 62.084 108.471C61.9122 108.147 61.6598 107.873 61.3512 107.675C60.8826 107.424 60.356 107.3 59.8245 107.318C58.0245 107.318 56.7629 108.523 56.7629 110.2C56.7629 111.876 57.9 112.892 59.6196 112.892C60.0616 112.892 60.5013 112.829 60.9253 112.704C61.2636 112.599 61.5855 112.448 61.8816 112.253L62.3998 113.005C62.0695 113.218 61.7112 113.385 61.3351 113.499C60.749 113.678 60.1398 113.768 59.5271 113.769C59.0143 113.798 58.5008 113.724 58.0175 113.55C57.5341 113.376 57.091 113.106 56.7147 112.756C56.3909 112.422 56.1367 112.026 55.967 111.593C55.7973 111.16 55.7155 110.697 55.7263 110.232C55.7136 109.741 55.7991 109.253 55.9778 108.796C56.1565 108.339 56.4248 107.922 56.7669 107.571C57.1819 107.171 57.6746 106.861 58.2144 106.66C58.7542 106.459 59.3296 106.371 59.9048 106.401C61.8936 106.401 63.3079 107.679 63.3079 109.464C63.3159 109.842 63.2491 110.219 63.1112 110.571C62.9733 110.924 62.767 111.245 62.5043 111.518C62.296 111.735 62.0467 111.909 61.7708 112.029C61.4949 112.149 61.198 112.213 60.8972 112.217C60.7572 112.227 60.617 112.201 60.4893 112.143C60.3616 112.085 60.2505 111.996 60.166 111.884C60.1187 111.804 60.0925 111.715 60.0896 111.622C59.9543 111.795 59.7801 111.934 59.5811 112.027C59.3821 112.12 59.164 112.164 58.9446 112.157C58.1008 112.157 57.5665 111.526 57.5665 110.549C57.5665 109.11 58.5106 107.916 59.6437 107.916C59.8314 107.892 60.0223 107.924 60.1913 108.01C60.3604 108.095 60.5 108.229 60.5918 108.395L60.6762 108.093L61.6766 108.109ZM59.9209 110.646C60.1256 110.237 60.2406 109.788 60.2584 109.331C60.2584 108.982 60.0655 108.74 59.7642 108.74C59.5816 108.755 59.4068 108.821 59.2592 108.929C59.1116 109.038 58.9971 109.186 58.9285 109.355C58.7199 109.75 58.6032 110.187 58.587 110.634C58.587 111.088 58.7598 111.325 59.0852 111.325C59.4106 111.325 59.6959 111.08 59.9209 110.646Z" fill="#F8901D"/>
<path d="M183.258 47.2639L130.971 65.3552L122.975 48.0999L183.258 47.2639Z" fill="#F8901D"/>
<path d="M183.258 47.2639L130.971 65.3552L122.975 48.0999L183.258 47.2639Z" fill="url(#paint5_linear)"/>
<path d="M125.639 54.0687L171.18 51.0421L183.258 47.2639L122.975 48.0999L125.639 54.0687Z" fill="url(#paint6_linear)"/>
<path d="M112.417 28.9958L186.617 47.8146L122.071 40.1094L112.417 28.9958Z" fill="#F8901D"/>
<path d="M78.8003 51.0744L122.072 40.1095L186.617 47.8147L78.8003 51.0744Z" fill="#F8901D"/>
<path d="M112.417 28.9958L186.617 47.8146L122.071 40.1094L112.417 28.9958Z" fill="url(#paint7_linear)"/>
<path d="M91.5347 57.7974L75.9893 57.3223L75.6965 66.908L91.242 67.3832L91.5347 57.7974Z" fill="#F8901D"/>
<path d="M91.2473 67.381L75.7026 66.9067L75.9919 57.3204L91.842 57.6782L91.2473 67.381Z" fill="url(#paint8_linear)"/>
<path d="M75.9919 57.3204L83.5493 65.4758L91.5929 57.9394L75.9919 57.3204Z" fill="url(#paint9_linear)"/>
<path d="M63.6168 50.7318L49.5862 44.0188L45.4501 52.6705L59.4807 59.3835L63.6168 50.7318Z" fill="#F8901D"/>
<path d="M59.4787 59.3864L45.4487 52.67L49.587 44.0203L63.9384 50.7527L59.4787 59.3864Z" fill="url(#paint10_linear)"/>
<path d="M49.5872 44.0203L53.2072 54.535L63.6051 50.8854L49.5872 44.0203Z" fill="url(#paint11_linear)"/>
<path d="M41.8474 72.6778L32.1953 76.0177L34.2533 81.9701L43.9054 78.6302L41.8474 72.6778Z" fill="#F8901D"/>
<path d="M43.9061 78.6353L34.2514 81.9754L32.1943 76.0227L42.0057 72.5419L43.9061 78.6353Z" fill="url(#paint12_linear)"/>
<path d="M32.1943 76.0227L38.7352 79.2623L41.9133 72.7589L32.1943 76.0227Z" fill="url(#paint13_linear)"/>
<path d="M26.2564 66.3433L16.8284 69.6057L18.8378 75.4175L28.2658 72.1551L26.2564 66.3433Z" fill="#F8901D"/>
<path d="M28.2609 72.16L18.8353 75.4197L16.8264 69.6077L26.4047 66.2073L28.2609 72.16Z" fill="url(#paint14_linear)"/>
<path d="M16.8264 69.6077L23.2146 72.7749L26.3163 66.4203L16.8264 69.6077Z" fill="url(#paint15_linear)"/>
<path d="M28.864 93.9057L21.5542 91.5297L20.0904 96.0366L27.4002 98.4126L28.864 93.9057Z" fill="#F8901D"/>
<path d="M27.393 98.4106L20.0847 96.0392L21.5512 91.5294L29.0162 93.8928L27.393 98.4106Z" fill="url(#paint16_linear)"/>
<path d="M21.5513 91.5294L24.0061 96.4451L28.8636 93.9813L21.5513 91.5294Z" fill="url(#paint17_linear)"/>
<path d="M94.311 30.4418L81.3779 35.5305L84.5132 43.5052L97.4462 38.4165L94.311 30.4418Z" fill="#F8901D"/>
<path d="M97.4465 38.4213L84.5134 43.5098L81.3755 35.5354L94.5176 30.2458L97.4465 38.4213Z" fill="url(#paint18_linear)"/>
<path d="M81.3755 35.5354L90.4556 39.5709L94.4051 30.5474L81.3755 35.5354Z" fill="url(#paint19_linear)"/>
<path d="M147.781 30.6585L130.996 29.0061L129.977 39.3583L146.763 41.0107L147.781 30.6585Z" fill="#F8901D"/>
<path d="M146.769 41.0058L129.979 39.3538L130.999 28.9999L148.119 30.5514L146.769 41.0058Z" fill="url(#paint20_linear)"/>
<path d="M130.999 28.9999L138.58 38.3771L147.833 30.8126L130.999 28.9999Z" fill="url(#paint21_linear)"/>
<path d="M78.8003 51.0744L122.072 40.1095L186.617 47.8147L78.8003 51.0744Z" fill="url(#paint22_linear)"/>
</g>
<defs>
<linearGradient id="paint0_linear" x1="78.1695" y1="101.337" x2="59.006" y2="4.04641" gradientUnits="userSpaceOnUse">
<stop stop-color="white" stop-opacity="0"/>
<stop offset="0.95" stop-color="white"/>
</linearGradient>
<linearGradient id="paint1_linear" x1="56.2524" y1="145.771" x2="55.8423" y2="109.79" gradientUnits="userSpaceOnUse">
<stop stop-color="#010101" stop-opacity="0"/>
<stop offset="0.95" stop-color="#010101"/>
</linearGradient>
<linearGradient id="paint2_linear" x1="1091.19" y1="5319.39" x2="1453.27" y2="5319.39" gradientUnits="userSpaceOnUse">
<stop stop-color="#010101" stop-opacity="0"/>
<stop offset="0.95" stop-color="#010101"/>
</linearGradient>
<linearGradient id="paint3_linear" x1="4724.51" y1="5202.36" x2="4645.37" y2="7087.68" gradientUnits="userSpaceOnUse">
<stop stop-color="#010101" stop-opacity="0"/>
<stop offset="0.95" stop-color="#010101"/>
</linearGradient>
<linearGradient id="paint4_linear" x1="2341.68" y1="671.767" x2="2341.77" y2="694.045" gradientUnits="userSpaceOnUse">
<stop stop-color="#010101" stop-opacity="0"/>
<stop offset="0.95" stop-color="#010101"/>
</linearGradient>
<linearGradient id="paint5_linear" x1="22736.7" y1="2925.22" x2="22817.4" y2="1103.16" gradientUnits="userSpaceOnUse">
<stop stop-color="white" stop-opacity="0"/>
<stop offset="0.95" stop-color="white"/>
</linearGradient>
<linearGradient id="paint6_linear" x1="23036.9" y1="949.719" x2="23042" y2="310.755" gradientUnits="userSpaceOnUse">
<stop stop-color="#010101" stop-opacity="0"/>
<stop offset="0.95" stop-color="#010101"/>
</linearGradient>
<linearGradient id="paint7_linear" x1="28039.8" y1="1225.49" x2="27989.6" y2="2718.81" gradientUnits="userSpaceOnUse">
<stop stop-color="white" stop-opacity="0"/>
<stop offset="0.95" stop-color="white"/>
</linearGradient>
<linearGradient id="paint8_linear" x1="1798.75" y1="1746.15" x2="1676.48" y2="2595.61" gradientUnits="userSpaceOnUse">
<stop stop-color="white" stop-opacity="0"/>
<stop offset="0.95" stop-color="white"/>
</linearGradient>
<linearGradient id="paint9_linear" x1="2918.5" y1="-13189.3" x2="3365" y2="-12656" gradientUnits="userSpaceOnUse">
<stop stop-color="white" stop-opacity="0"/>
<stop offset="0.95" stop-color="white"/>
</linearGradient>
<linearGradient id="paint10_linear" x1="-6742.99" y1="2447.7" x2="-7440.99" y2="3556.79" gradientUnits="userSpaceOnUse">
<stop stop-color="white" stop-opacity="0"/>
<stop offset="0.95" stop-color="white"/>
</linearGradient>
<linearGradient id="paint11_linear" x1="442.294" y1="-12436.1" x2="688.411" y2="-11573.6" gradientUnits="userSpaceOnUse">
<stop stop-color="white" stop-opacity="0"/>
<stop offset="0.95" stop-color="white"/>
</linearGradient>
<linearGradient id="paint12_linear" x1="3779.55" y1="296.453" x2="3893.92" y2="812.364" gradientUnits="userSpaceOnUse">
<stop stop-color="white" stop-opacity="0"/>
<stop offset="0.95" stop-color="white"/>
</linearGradient>
<linearGradient id="paint13_linear" x1="1959.96" y1="-8112.27" x2="2277.36" y2="-7933.66" gradientUnits="userSpaceOnUse">
<stop stop-color="white" stop-opacity="0"/>
<stop offset="0.95" stop-color="white"/>
</linearGradient>
<linearGradient id="paint14_linear" x1="3245.69" y1="168.75" x2="3354.68" y2="660.714" gradientUnits="userSpaceOnUse">
<stop stop-color="white" stop-opacity="0"/>
<stop offset="0.95" stop-color="white"/>
</linearGradient>
<linearGradient id="paint15_linear" x1="1779.37" y1="-7913.21" x2="2082.22" y2="-7742.84" gradientUnits="userSpaceOnUse">
<stop stop-color="white" stop-opacity="0"/>
<stop offset="0.95" stop-color="white"/>
</linearGradient>
<linearGradient id="paint16_linear" x1="-2788.72" y1="2041.98" x2="-2909.29" y2="2305.72" gradientUnits="userSpaceOnUse">
<stop stop-color="white" stop-opacity="0"/>
<stop offset="0.95" stop-color="white"/>
</linearGradient>
<linearGradient id="paint17_linear" x1="1267.3" y1="-1820.74" x2="1350.08" y2="-1630.83" gradientUnits="userSpaceOnUse">
<stop stop-color="white" stop-opacity="0"/>
<stop offset="0.95" stop-color="white"/>
</linearGradient>
<linearGradient id="paint18_linear" x1="7632.12" y1="-1894.87" x2="7891.55" y2="-917.896" gradientUnits="userSpaceOnUse">
<stop stop-color="white" stop-opacity="0"/>
<stop offset="0.95" stop-color="white"/>
</linearGradient>
<linearGradient id="paint19_linear" x1="700.556" y1="-14610.7" x2="1313.14" y2="-14298.7" gradientUnits="userSpaceOnUse">
<stop stop-color="white" stop-opacity="0"/>
<stop offset="0.95" stop-color="white"/>
</linearGradient>
<linearGradient id="paint20_linear" x1="3298.26" y1="1758.37" x2="3065.47" y2="2844.52" gradientUnits="userSpaceOnUse">
<stop stop-color="white" stop-opacity="0"/>
<stop offset="0.95" stop-color="white"/>
</linearGradient>
<linearGradient id="paint21_linear" x1="4314.36" y1="-16289.7" x2="4824.68" y2="-15588.4" gradientUnits="userSpaceOnUse">
<stop stop-color="white" stop-opacity="0"/>
<stop offset="0.95" stop-color="white"/>
</linearGradient>
<linearGradient id="paint22_linear" x1="132.996" y1="36.3875" x2="132.24" y2="70.7935" gradientUnits="userSpaceOnUse">
<stop stop-color="white" stop-opacity="0"/>
<stop offset="0.39" stop-color="white"/>
</linearGradient>
<clipPath id="clip0">
<rect width="210" height="175" fill="white"/>
</clipPath>
</defs>
</svg>
