<svg width="24" height="24" viewBox="0 0 24 24" fill="none" xmlns="http://www.w3.org/2000/svg">
<path fill-rule="evenodd" clip-rule="evenodd" d="M12.0011 15.1931L17.9194 21.2526C18.5131 21.8651 18.8994 21.8714 19.504 21.2526L20.6914 20.0366C21.2731 19.4411 21.3125 19.0503 20.6914 18.4143L14.4257 12L20.692 5.58571C21.2788 4.98286 21.2902 4.576 20.692 3.96286L19.5045 2.74743C18.8885 2.11657 18.508 2.14571 17.92 2.74743L12.0011 8.80686L6.08281 2.748C5.49481 2.14628 5.11424 2.11714 4.49824 2.748L3.31081 3.96343C2.71196 4.57657 2.72281 4.98343 3.31081 5.58628L9.57653 12L3.31081 18.4143C2.68967 19.0503 2.72281 19.4411 3.31081 20.0366L4.49767 21.2526C5.0971 21.8714 5.48339 21.8651 6.08224 21.2526L12.0011 15.1931Z" fill="black"/>
</svg>
